<svg xmlns="http://www.w3.org/2000/svg" viewBox="0 0 24 24"><path d="M11.901,5c0,0,0.005,0,0.006,0c0.002,0,0.002,0,0.003,0H11.901z M18.854,11.998c0-3.844-3.101-6.969-6.947-6.998 c-0.021,0-0.039,0-0.053,0C9.876,4.999,8.08,5.829,6.806,7.157L5.146,5.47v4.893h4.828L8.295,8.664 C9.188,7.71,10.45,7.12,11.854,7.12c0.014,0,0.021,0,0.023,0h0.01c2.687,0.017,4.848,2.196,4.848,4.878c0,0.005,0,0.018,0,0.04 c-0.021,2.68-2.201,4.84-4.877,4.84c-0.01,0-0.023,0-0.041,0L11.823,19c0.004,0,0.017,0,0.033,0 c3.846-0.002,6.976-3.107,6.996-6.956v-0.013v-0.016C18.854,12.016,18.854,12.009,18.854,11.998"/></svg>
