<svg xmlns="http://www.w3.org/2000/svg" viewBox="0 0 24 24"><path d="M12,5c-3.863,0-7,3.134-7,7s3.137,7,7,7c3.863,0,7-3.134,7-7S15.863,5,12,5z M12,16.875c-2.688,0-4.874-2.188-4.874-4.875 c0-2.689,2.188-4.877,4.874-4.877c2.686,0,4.874,2.188,4.874,4.877C16.874,14.688,14.688,16.875,12,16.875z M12.604,11.757V8.359 c0-0.334-0.27-0.604-0.604-0.604s-0.604,0.27-0.604,0.604v3.885l1.87,1.932c0.123,0.121,0.274,0.186,0.438,0.186 c0.15,0,0.301-0.059,0.418-0.17c0.238-0.231,0.244-0.612,0.014-0.854L12.604,11.757z"/></svg>
